<svg xmlns="http://www.w3.org/2000/svg" viewBox="0 0 90 29.29995"><defs><style>.cls-1{fill:#766661;}</style></defs><title>Asset 5</title><g id="Layer_2" data-name="Layer 2"><g id="Layer_1-2" data-name="Layer 1"><path class="cls-1" d="M0,0H18.67665a14.65,14.65,0,0,1,0,29.3H10.23081V23.44008h7.38608a8.7901,8.7901,0,1,0,0-17.5802H5.943V29.3H0V0Z"/><path class="cls-1" d="M17.193,19.92361H10.23081V9.37609H17.193a5.27376,5.27376,0,1,1,0,10.54752Z"/><path class="cls-1" d="M56.67365,0H75.3503a14.65,14.65,0,0,1,0,29.3H66.90446V23.44008h7.38608a8.7901,8.7901,0,1,0,0-17.5802H62.61665V29.3h-5.943V0Z"/><path class="cls-1" d="M73.86669,19.92361H66.90446V9.37609h6.96223a5.27376,5.27376,0,1,1,0,10.54752Z"/><path class="cls-1" d="M36.63441,14.60515a1.39713,1.39713,0,0,0,.98355.40917l.42883,0a1.39074,1.39074,0,1,0,0-2.78148l-.42883,0a1.38955,1.38955,0,0,0-.98355,2.37231Z"/><path class="cls-1" d="M41.55048,14.60515a1.39713,1.39713,0,0,0,.98355.40917l.42883,0a1.39074,1.39074,0,1,0,0-2.78148l-.42883,0a1.38955,1.38955,0,0,0-.98355,2.37231Z"/><path class="cls-1" d="M46.46656,14.60515a1.39713,1.39713,0,0,0,.98355.40917l.42883,0a1.39074,1.39074,0,0,0,0-2.78148l-.42883,0a1.38955,1.38955,0,0,0-.98355,2.37231Z"/><path class="cls-1" d="M51.38264,14.60515a1.39713,1.39713,0,0,0,.98355.40917l.42883,0a1.39074,1.39074,0,1,0,0-2.78148l-.42883,0a1.38955,1.38955,0,0,0-.98355,2.37231Z"/></g></g></svg>