<svg xmlns="http://www.w3.org/2000/svg" viewBox="0 0 89.99994 23.74268"><defs><style>.cls-1{fill:#766661;}</style></defs><title>Asset 7</title><g id="Layer_2" data-name="Layer 2"><g id="Layer_1-2" data-name="Layer 1"><path class="cls-1" d="M2.44513,7.636,0,11.87109,2.44513,16.106h4.8902l2.44513-4.23486L7.33533,7.636Zm85.10974,0H82.66473l-2.44519,4.23511L82.66473,16.106h4.89014l2.44507-4.23486ZM71.96844,0H18.03107a3.03366,3.03366,0,0,0-3.0249,3.02466V20.71777a3.03387,3.03387,0,0,0,3.0249,3.0249H71.96844a3.0338,3.0338,0,0,0,3.0249-3.0249V3.02466A3.03359,3.03359,0,0,0,71.96844,0ZM19.5387,6.94263H22.003V9.407H19.5387ZM22.003,16.7998H19.5387V14.33545H22.003Zm7.39276,0H26.93152V14.33545h2.46423Zm0-4.19531H25.20062V16.7998h-1.4668V12.60449H19.5387V11.1377h4.19513V6.94263h1.4668V11.1377h4.19513Zm0-3.19751H26.93152V6.94263h2.46423ZM39.967,19.2854H36.64032V15.95874H39.967Zm0-5.75073H36.64032v-3.3269H39.967Zm0-5.751H36.64032V4.457H39.967ZM44.3233,19.2854H40.99658V15.95874H44.3233Zm0-5.75073H40.99658v-3.3269H44.3233Zm0-5.751H40.99658V4.457H44.3233ZM48.67963,19.2854H45.35284V15.95874h3.32678Zm0-5.75073H45.35284v-3.3269h3.32678Zm0-5.751H45.35284V4.457h3.32678Zm4.3562,11.50171H49.70917V15.95874h3.32666Zm0-5.75073H49.70917v-3.3269h3.32666Zm0-5.751H49.70917V4.457h3.32666ZM57.392,19.2854H54.06537V15.95874H57.392Zm0-5.75073H54.06537v-3.3269H57.392Zm0-5.751H54.06537V4.457H57.392ZM61.74835,19.2854H58.42157V15.95874h3.32678Zm0-5.75073H58.42157v-3.3269h3.32678Zm0-5.751H58.42157V4.457h3.32678ZM66.10468,19.2854h-3.3269V15.95874h3.3269Zm0-5.75073h-3.3269v-3.3269h3.3269Zm0-5.751h-3.3269V4.457h3.3269Zm4.3562,11.50171H67.13409V15.95874h3.32678Zm0-5.75073H67.13409v-3.3269h3.32678Zm0-5.751H67.13409V4.457h3.32678Z"/></g></g></svg>