<svg xmlns="http://www.w3.org/2000/svg" viewBox="0 0 90 32.50342"><defs><style>.cls-1{fill:#766661;}</style></defs><title>Asset 6</title><g id="Layer_2" data-name="Layer 2"><g id="Layer_1-2" data-name="Layer 1"><path class="cls-1" d="M69.4118,0H20.58789a7.139,7.139,0,0,0-7.13062,7.13135l5.366,18.34473a7.139,7.139,0,0,0,7.13,7.02734H64.04645a7.139,7.139,0,0,0,7.12994-7.02734L76.514,7.32593l.02838-.19458A7.13894,7.13894,0,0,0,69.4118,0ZM62.57123,4.85107A2.28027,2.28027,0,1,1,60.291,7.13135,2.2803,2.2803,0,0,1,62.57123,4.85107Zm-9.121,0A2.28027,2.28027,0,1,1,51.17,7.13135,2.28034,2.28034,0,0,1,53.45026,4.85107Zm-9.121,0a2.28027,2.28027,0,1,1-2.28021,2.28027A2.28034,2.28034,0,0,1,44.32928,4.85107Zm-9.121,0A2.28027,2.28027,0,1,1,32.9281,7.13135,2.28034,2.28034,0,0,1,35.20831,4.85107Zm-9.121,0a2.28027,2.28027,0,1,1-2.28021,2.28027A2.28034,2.28034,0,0,1,26.08734,4.85107Zm0,22.80249a2.28027,2.28027,0,1,1,2.28027-2.28027A2.28029,2.28029,0,0,1,26.08734,27.65356Zm4.56049-9.12109A2.28027,2.28027,0,1,1,32.9281,16.2522,2.28013,2.28013,0,0,1,30.64783,18.53247Zm4.56049,9.12109a2.28027,2.28027,0,1,1,2.28027-2.28027A2.28029,2.28029,0,0,1,35.20831,27.65356Zm4.56049-9.12109a2.28027,2.28027,0,1,1,2.28027-2.28027A2.28013,2.28013,0,0,1,39.7688,18.53247Zm4.56049,9.12109a2.28027,2.28027,0,1,1,2.28027-2.28027A2.28029,2.28029,0,0,1,44.32928,27.65356Zm4.56049-9.12109A2.28027,2.28027,0,1,1,51.17,16.2522,2.28013,2.28013,0,0,1,48.88977,18.53247Zm4.56049,9.12109a2.28027,2.28027,0,1,1,2.28027-2.28027A2.28029,2.28029,0,0,1,53.45026,27.65356Zm4.56049-9.12109A2.28027,2.28027,0,1,1,60.291,16.2522,2.28013,2.28013,0,0,1,58.01074,18.53247Zm4.56049,9.12109a2.28027,2.28027,0,1,1,2.28027-2.28027A2.28029,2.28029,0,0,1,62.57123,27.65356Zm4.56049-9.12109A2.28027,2.28027,0,1,1,69.412,16.2522,2.28013,2.28013,0,0,1,67.13171,18.53247Z"/><circle class="cls-1" cx="84.666" cy="16.25233" r="5.334"/><circle class="cls-1" cx="5.334" cy="16.25233" r="5.334"/></g></g></svg>